<svg width="81" height="87" viewBox="0 0 81 87" fill="none" xmlns="http://www.w3.org/2000/svg">
<path d="M29.25 73.3572C9.25 79.3572 9.25 63.3572 1.25 61.3572M57.25 85.3572V69.8772C57.4 67.9698 57.1424 66.0524 56.4941 64.2523C55.8458 62.4523 54.8217 60.8109 53.49 59.4372C66.05 58.0372 79.25 53.2772 79.25 31.4372C79.249 25.8525 77.1008 20.482 73.25 16.4372C75.0734 11.5512 74.9445 6.15057 72.89 1.35717C72.89 1.35717 68.17 -0.0428276 57.25 7.27717C48.082 4.79246 38.418 4.79246 29.25 7.27717C18.33 -0.0428276 13.61 1.35717 13.61 1.35717C11.5555 6.15057 11.4266 11.5512 13.25 16.4372C9.37051 20.512 7.22009 25.931 7.25 31.5572C7.25 53.2372 20.45 57.9972 33.01 59.5572C31.694 60.9171 30.6791 62.5388 30.0312 64.3169C29.3834 66.0949 29.1172 67.9894 29.25 69.8772V85.3572" stroke="#B3B3B3" stroke-width="2.5" stroke-linecap="round" stroke-linejoin="round"/>
</svg>
